<?xml version="1.0" encoding="UTF-8" standalone="no"?>
<svg xmlns="http://www.w3.org/2000/svg" xmlns:xlink="http://www.w3.org/1999/xlink" id="svg2" viewBox="0 0 208.924 208.924">
  <path d="M134.533 154.462H74.391c-11.007 0-19.929-8.922-19.929-19.929V74.391c0-11.007 8.922-19.929 19.929-19.929h60.142c11.007 0 19.929 8.922 19.929 19.929v60.142c0 11.007-8.922 19.929-19.929 19.929" fill="#242525" />
  <path id="bar-1" class="bar" d="M90.835 79.883l-.392-.678-2-3.464a27.522 27.522 0 0 0-12.652 21.915h4.787a22.755 22.755 0 0 1 10.257-17.773" opacity="0" fill=" #80e613" />
  <path id="bar-2" class="bar" d="M103.198 76.215c3.574 0 7.098.844 10.261 2.452l4.258-7.372a31.214 31.214 0 0 0-14.518-3.59 31.205 31.205 0 0 0-14.518 3.59l4.256 7.372a22.663 22.663 0 0 1 10.26-2.452" opacity="0" fill=" #80e613" />
  <path id="bar-3" class="bar" d="M115.561 79.883a22.75 22.75 0 0 1 10.26 17.773h12.249c-.405-11.559-6.578-22.248-16.386-28.379l-.638 1.107z" opacity="0" fill=" #80e613" />
  <path id="bar-4" class="bar" d="M140.52 100.083h-14.7a22.752 22.752 0 0 1-10.255 17.77l8.023 13.816c10.933-6.8 17.804-18.716 18.212-31.586z" opacity="0" fill=" #80e613" />
  <path id="bar-5" class="bar" d="M117.835 126.6l-4.372-7.53a22.678 22.678 0 0 1-10.265 2.454 22.67 22.67 0 0 1-9.985-2.327l-10.112 16.947a42.409 42.409 0 0 0 20.098 5.075c7.038 0 13.98-1.764 20.159-5.108l-.644-1.107z" opacity="0" fill=" #80e613" />
  <path id="indicator" transform="rotate(0 102.472 98.951)" d="m 102.47,98.95 c -31.403255,27.42374 0,0 -31.403255,27.42374 c 1.402569,1.62177 2.923005,3.14214 4.543369,4.547 c 26.859886,-31.97074 0,0 26.859886,-31.97074 z" fill=" #80e613" />
  <animate xlink:href="#indicator" id="start" attributeType="XML" attributeName="d" values="m 102.47,98.95 c -31.403255,27.42374 0,0 -31.403255,27.42374 c 1.402569,1.62177 2.923005,3.14214 4.543369,4.547 c 26.859886,-31.97074 0,0 26.859886,-31.97074 z;
                                                                                            m 102.47,98.95 c -33.914824,24.23366 0,0 -33.914824,24.23366 c 2.826106,3.9543 6.316259,7.43331 10.261424,10.27244 c 23.6534,-34.5061 0,0 23.6534,-34.5061 z;
                                                                                            m 102.47,98.95 c -33.151711,25.26873 0,0 -33.151711,25.26873 c 2.420016,3.18311 5.276987,6.03471 8.454521,8.46317 c 24.69719,-33.7319 0,0 24.69719,-33.7319 z;
                                                                                            m 102.47,98.95 c -11.782333,7.366 -23.564667,14.732 -35.347,22.098 c 3.505033,5.58125 8.29832,10.34229 13.859,13.873 c 7.170981,-11.98536 14.329443,-23.97821 21.488,-35.971 z"
                                                                                            keyTimes="0;.3;.375;1" keySplines=".39 .77 .7 .95;.61 .23 .3 .05;.26 .59 .54 .99" calcMode="spline" begin="0s;firstBarReverse.end+1.5s" dur="3s" fill="freeze" />
  <animateTransform xlink:href="#indicator" attributeType="XML" attributeName="transform" type="rotate" values="30 102.472 98.951; 240 102.472 98.951; 178 102.472 98.951; 360 102.472 98.951" keyTimes="0;.3;.375;1" keySplines=".39 .77 .7 .95;.61 .23 .3 .05;.26 .59 .54 .99" calcMode="spline" begin="start.begin" dur="3s" fill="freeze" />
  <animate xlink:href="#bar-1" id="firstBar" attributeType="XML" attributeName="opacity" values="0;.1" keyTimes="0;1" keySplines=".39 .77 .7 .95" calcMode="spline" begin="start.begin+0.2" dur="0.005s" fill="freeze" />
  <animate xlink:href="#bar-2" id="secondBar" attributeType="XML" attributeName="opacity" values="0;.3" keyTimes="0;1" keySplines=".39 .77 .7 .95" calcMode="spline" begin="firstBar.begin+0.215s" dur="0.015s" fill="freeze" />
  <animate xlink:href="#bar-3" id="thirdBar" attributeType="XML" attributeName="opacity" values="0;.5" keyTimes="0;1" keySplines=".39 .77 .7 .95" calcMode="spline" begin="secondBar.begin+0.325s" dur="0.025s" fill="freeze" />
  <animate xlink:href="#bar-3" id="thirdBar2" attributeType="XML" attributeName="opacity" values=".5;0" keyTimes="0;1" keySplines=".39 .77 .7 .95" calcMode="spline" begin="thirdBar.end+0.115s" dur="0.025s" fill="freeze" />
  <animate xlink:href="#bar-3" id="thirdBar3" attributeType="XML" attributeName="opacity" values="0;.5" keyTimes="0;1" keySplines=".39 .77 .7 .95" calcMode="spline" begin="thirdBar2.end+0.5s" dur="0.025s" fill="freeze" />
  <animate xlink:href="#bar-4" id="fourthBar" attributeType="XML" attributeName="opacity" values="0;.7" keyTimes="0;1" keySplines=".39 .77 .7 .95" calcMode="spline" begin="thirdBar3.begin+0.4s" dur="0.035s" fill="freeze" />
  <animate xlink:href="#bar-5" id="fifthBar" attributeType="XML" attributeName="opacity" values="0;.9" keyTimes="0;1" keySplines=".39 .77 .7 .95" calcMode="spline" begin="fourthBar.begin+0.9s" dur="0.045s" fill="freeze" />
  <animate xlink:href="#indicator" id="reverse" attributeType="XML" attributeName="d" values="m 102.47,98.95 c -11.782333,7.366 -23.564667,14.732 -35.347,22.098 c 3.505033,5.58125 8.29832,10.34229 13.859,13.873 c 7.170981,-11.98536 14.329443,-23.97821 21.488,-35.971 z;
                                                                                              m 102.47,98.95 c -31.403255,27.42374 0,0 -31.403255,27.42374 c 1.402569,1.62177 2.923005,3.14214 4.543369,4.547 c 26.859886,-31.97074 0,0 26.859886,-31.97074 z"
                                                                                            keyTimes="0;1" keySplines=".39 .77 .7 .95" calcMode="spline" begin="fifthBar.end+0.5s" dur="2s" fill="freeze" />
  <animateTransform xlink:href="#indicator" attributeType="XML" attributeName="transform" type="rotate" values="360 102.472 98.951; 40 102.472 98.951" keyTimes="0;1" keySplines=".39 .77 .7 .95" calcMode="spline" begin="reverse.begin" dur="2s" fill="freeze" />
  <animate xlink:href="#bar-5" id="fifthBarReverse" attributeType="XML" attributeName="opacity" values=".9;0" keyTimes="0;1" keySplines=".75 0 .75 0" calcMode="spline" begin="reverse.begin+0.1s" dur="0.005s" fill="freeze" />
  <animate xlink:href="#bar-4" id="fourthBarReverse" attributeType="XML" attributeName="opacity" values=".7;0" keyTimes="0;1" keySplines=".75 0 .75 0" calcMode="spline" begin="fifthBarReverse.begin+0.15s" dur="0.015s" fill="freeze" />
  <animate xlink:href="#bar-3" id="thirdBarReverse" attributeType="XML" attributeName="opacity" values=".5;0" keyTimes="0;1" keySplines=".75 0 .75 0" calcMode="spline" begin="fourthBarReverse.begin+0.215s" dur="0.025s" fill="freeze" />
  <animate xlink:href="#bar-2" id="secondBarReverse" attributeType="XML" attributeName="opacity" values=".3;0" keyTimes="0;1" keySplines=".75 0 .75 0" calcMode="spline" begin="thirdBarReverse.begin+0.265s" dur="0.035s" fill="freeze" />
  <animate xlink:href="#bar-1" id="firstBarReverse" attributeType="XML" attributeName="opacity" values=".1;0" keyTimes="0;1" keySplines=".75 0 .75 0" calcMode="spline" begin="secondBarReverse.begin+0.325s" dur="0.045s" fill="freeze" />-->
</svg>

